M48
INCH,TZ
T1C0.016
T2C0.030
T3C0.050
%
G90
G05
T1
X5.374Y-3.7638
X5.374Y-3.7638
X5.374Y-3.815
X5.374Y-3.815
X5.374Y-3.8661
X5.374Y-3.8661
X5.374Y-3.9173
X5.374Y-3.9173
X5.374Y-3.9685
X5.374Y-3.9685
X5.374Y-4.2992
X5.374Y-4.2992
X5.374Y-4.3504
X5.374Y-4.3504
X5.374Y-4.4016
X5.374Y-4.4016
X5.374Y-4.4528
X5.374Y-4.4528
X5.374Y-4.5039
X5.374Y-4.5039
X5.4252Y-3.7638
X5.4252Y-4.5039
X5.4764Y-3.7638
X5.4764Y-4.5039
X5.5276Y-3.7638
X5.5276Y-4.5039
X5.5315Y-4.0512
X5.5315Y-4.2165
X5.5787Y-3.7638
X5.5787Y-3.815
X5.5787Y-3.9173
X5.5787Y-3.9173
X5.5787Y-4.3504
X5.5787Y-4.4528
X5.5787Y-4.5039
X5.5866Y-4.0512
X5.5866Y-4.2165
X5.6299Y-3.7638
X5.6299Y-4.5039
X5.6417Y-4.0512
X5.6417Y-4.2165
X5.6811Y-3.7638
X5.6811Y-4.5039
X5.6969Y-3.9843
X5.6969Y-4.2835
X5.7323Y-3.7638
X5.7323Y-4.5039
X5.7835Y-3.7638
X5.7835Y-3.815
X5.7835Y-3.9173
X5.7835Y-3.9173
X5.7835Y-4.1339
X5.7835Y-4.1339
X5.7835Y-4.3504
X5.7835Y-4.4528
X5.7835Y-4.5039
X5.8346Y-3.7638
X5.8346Y-4.5039
X5.8858Y-3.7638
X5.8858Y-4.1339
X5.8858Y-4.5039
X5.937Y-3.7638
X5.937Y-4.5039
X5.9882Y-3.7638
X5.9882Y-3.815
X5.9882Y-3.9173
X5.9882Y-3.9173
X5.9882Y-4.1339
X5.9882Y-4.1339
X5.9882Y-4.1339
X5.9882Y-4.3504
X5.9882Y-4.4528
X5.9882Y-4.5039
X6.0394Y-3.7638
X6.0394Y-4.5039
X6.0906Y-3.7638
X6.0906Y-4.1339
X6.0906Y-4.5039
X6.1417Y-3.7638
X6.1417Y-4.5039
X6.1929Y-3.7638
X6.1929Y-3.815
X6.1929Y-3.9173
X6.1929Y-3.9173
X6.1929Y-4.1339
X6.1929Y-4.1339
X6.1929Y-4.1339
X6.1929Y-4.3504
X6.1929Y-4.4528
X6.1929Y-4.5039
X6.2441Y-3.7638
X6.2441Y-4.5039
X6.2953Y-3.7638
X6.2953Y-4.1339
X6.2953Y-4.1339
X6.2953Y-4.5039
X6.3465Y-3.7638
X6.3465Y-4.5039
X6.3976Y-3.7638
X6.3976Y-3.815
X6.3976Y-3.9173
X6.3976Y-3.9173
X6.3976Y-4.1339
X6.3976Y-4.1339
X6.3976Y-4.1339
X6.3976Y-4.1339
X6.3976Y-4.3504
X6.3976Y-4.4528
X6.3976Y-4.5039
X6.4488Y-3.7638
X6.4488Y-4.5039
X6.5Y-3.7638
X6.5Y-4.1339
X6.5Y-4.1339
X6.5Y-4.5039
X6.5512Y-3.7638
X6.5512Y-4.5039
X6.6024Y-3.7638
X6.6024Y-3.815
X6.6024Y-3.9173
X6.6024Y-3.9173
X6.6024Y-4.1339
X6.6024Y-4.1339
X6.6024Y-4.1339
X6.6024Y-4.1339
X6.6024Y-4.3504
X6.6024Y-4.4528
X6.6024Y-4.5039
X6.6535Y-3.7638
X6.6535Y-4.5039
X6.7047Y-3.7638
X6.7047Y-4.1339
X6.7047Y-4.1339
X6.7047Y-4.5039
X6.7559Y-3.7638
X6.7559Y-4.5039
X6.8071Y-3.7638
X6.8071Y-3.815
X6.8071Y-3.9173
X6.8071Y-3.9173
X6.8071Y-4.1339
X6.8071Y-4.3504
X6.8071Y-4.4528
X6.8071Y-4.5039
X6.8583Y-3.7638
X6.8583Y-4.5039
X6.8937Y-3.9843
X6.8937Y-4.2835
X6.9094Y-3.7638
X6.9094Y-4.5039
X6.9488Y-4.0512
X6.9488Y-4.2165
X6.9606Y-3.7638
X6.9606Y-4.5039
X7.0039Y-4.0512
X7.0039Y-4.2165
X7.0118Y-3.7638
X7.0118Y-3.815
X7.0118Y-3.9173
X7.0118Y-3.9173
X7.0118Y-4.3504
X7.0118Y-4.4528
X7.0118Y-4.5039
X7.0591Y-4.0512
X7.0591Y-4.2165
X7.063Y-3.7638
X7.063Y-4.5039
X7.1142Y-3.7638
X7.1142Y-4.5039
X7.1654Y-3.7638
X7.1654Y-4.5039
X7.2165Y-3.7638
X7.2165Y-3.815
X7.2165Y-3.8661
X7.2165Y-3.9173
X7.2165Y-3.9685
X7.2165Y-4.2992
X7.2165Y-4.3504
X7.2165Y-4.4016
X7.2165Y-4.4528
X7.2165Y-4.5039
T2
X5.7559Y-4.0434
X5.7559Y-4.2246
X5.9371Y-4.0434
X5.9371Y-4.2246
X6.0552Y-4.0434
X6.0552Y-4.2246
X6.2363Y-4.0434
X6.2363Y-4.2246
X6.3544Y-4.0434
X6.3544Y-4.2246
X6.5355Y-4.0434
X6.5355Y-4.2246
X6.6536Y-4.0434
X6.6536Y-4.2246
X6.8347Y-4.0434
X6.8347Y-4.2246
T3
X5.8465Y-3.9844
X5.8465Y-4.2836
X6.1457Y-3.9844
X6.1457Y-4.2836
X6.4449Y-3.9844
X6.4449Y-4.2836
X6.7441Y-3.9844
X6.7441Y-4.2836
T0
M30
